<svg width="25" height="24" viewBox="0 0 25 24" fill="none" xmlns="http://www.w3.org/2000/svg">
<path d="M4.75879 15.5765C6.18284 18.5048 9.20418 20.5 12.747 20.5C17.8109 20.5 21.229 17 21.229 12C21.229 11.375 21.229 11 21.1024 10.5L12.747 10.5V13.5H17.8109C17.5577 14.75 16.2917 17.25 12.747 17.25C10.3338 17.25 8.31992 15.6729 7.59337 13.5208L4.75879 15.5765Z" fill="#34A853"/>
<path d="M4.75917 7.92188C4.19813 9.07487 3.88477 10.3726 3.88477 11.7501C3.88477 13.1277 4.19813 14.4254 4.75917 15.5784L7.59498 13.5271C7.40545 12.9678 7.30288 12.3696 7.30288 11.7501C7.30288 11.1306 7.40545 10.5325 7.59498 9.97321L4.75917 7.92188Z" fill="#FBBC05"/>
<path d="M12.7466 3C9.20452 3 6.18368 4.99445 4.75928 7.92174L7.59508 9.97307C8.32338 7.8241 10.3357 6.25 12.7466 6.25C14.519 6.25 15.6584 7 16.2913 7.625L18.6967 5.375C17.1775 3.875 15.152 3 12.7466 3Z" fill="#EA4335"/>
<path d="M17.8109 13.5H12.7471V10.5L21.1025 10.5C21.2291 11 21.2291 11.375 21.2291 12C21.2291 14.5318 20.3526 16.6791 18.8299 18.182C18.7277 18.1072 18.6241 18.0313 18.5191 17.9545C17.7698 17.4059 16.951 16.8064 16.1148 16.1943C17.1806 15.3609 17.6647 14.222 17.8109 13.5Z" fill="#4285F4"/>
</svg>
